<?xml version="1.0" encoding="UTF-8"?>
<svg width="590px" height="568px" viewBox="0 0 590 568" xmlns="http://www.w3.org/2000/svg" xmlns:xlink="http://www.w3.org/1999/xlink" version="1.1">
 <!-- Generated by Pixelmator Pro 2.1.3 -->
 <g id="group">
  <defs>
   <path id="Path" d="M378.333 91.519 C365.274 71.216 351.697 57.474 350.607 56.384 343.451 49.228 331.252 51.089 326.604 60.242 326.509 60.43 316.799 79.312 294.28 102.534 285.702 111.38 274.464 121.633 260.372 131.993 268.539 145.56 269.29 150.919 279.039 168.061 324.032 145.449 359.733 111.429 378.333 91.519 Z"/>
  </defs>
  <use id="Path-1" xlink:href="#Path" fill="#ffffff" fill-opacity="1" stroke="none"/>
  <defs>
   <path id="stroke-path" d="M297.938 168.094 L310.094 160.672 321.609 152.938 335.938 142.406 349.031 131.797 359.469 122.672 374.734 108.172 389.875 92.547 379.531 77.25 370.016 64.781 361.531 54.859 356.344 49.391 352.766 46.594 346.391 43.75 338.281 42.953 330.406 44.875 324.453 48.594 320.563 52.813 313.938 63.906 308.484 71.813 300.266 82.375 293.469 90.234 286.25 97.891 275.609 108.016 267.047 115.391 248.719 129.656 256.875 144.172 266.359 163.625 275.422 180.234 Z"/>
  </defs>
  <use id="Path-2" stroke="#ffffff" stroke-opacity="1" stroke-linecap="round" fill="none" stroke-width="18" xlink:href="#stroke-path"/>
  <defs>
   <path id="stroke-path-1" d="M378.333 91.519 C365.274 71.216 351.697 57.474 350.607 56.384 343.451 49.228 331.252 51.089 326.604 60.242 326.509 60.43 316.799 79.312 294.28 102.534 285.702 111.38 274.464 121.633 260.372 131.993 268.539 145.56 269.29 150.919 279.039 168.061 324.032 145.449 359.733 111.429 378.333 91.519 Z" stroke-linejoin="round"/>
  </defs>
  <use id="Path-3" stroke="#000000" stroke-opacity="1" stroke-linecap="round" fill="none" stroke-width="6" xlink:href="#stroke-path-1"/>
  <defs>
   <path id="Path-4" d="M561.172 400.582 C560.561 400.405 499.198 382.394 429.182 343.544 422.739 339.969 416.084 336.133 409.288 332.044 453.211 307.611 483 260.718 483 206.99 483 146.258 441.299 95.517 439.523 93.388 433.497 86.157 422.075 86.117 416.117 93.835 415.436 94.719 354.541 172.583 267.507 205.943 257.657 191.775 248.902 176.727 241.655 160.783 225.008 124.16 197.43 103.99 164 103.99 132.639 103.99 106.557 127.026 101.781 157.063 61.597 178.389 60.052 220.707 60.005 222.615 59.794 231.053 66.582 237.99 75 237.99 L92 237.99 C122.109 237.99 134.572 237.99 173.874 348.035 199.917 420.957 262.868 445.99 340 445.99 385.55 445.99 417.998 456.762 436.442 478.008 457.252 501.981 453.205 532.488 453.174 532.709 451.777 541.787 458.807 549.99 467.999 549.99 507.302 549.99 537.865 526.016 556.386 480.661 569.381 448.837 571.859 417.433 571.957 416.112 572.488 409.038 567.985 402.558 561.172 400.582 Z M164 180 C155.716 180 149 173.284 149 165 149 156.716 155.716 150 164 150 172.284 150 179 156.716 179 165 179 173.284 172.284 180 164 180 Z"/>
  </defs>
  <use id="Path-5" xlink:href="#Path-4" fill="#ffffff" fill-opacity="1" stroke="none"/>
  <defs>
   <path id="stroke-path-2" d="M477.922 558.531 L485.75 557.438 496.781 554.719 504.047 552.047 511.063 548.781 520.781 542.953 527.063 538.203 532.984 532.984 538.594 527.203 543.922 520.828 551.25 510.438 559.875 494.953 563.797 486.281 567.734 476.219 573.719 456.953 576.359 445.953 579 432.016 581.063 415.375 579.984 407.766 577.313 402.109 573.484 397.453 568.594 393.906 564.266 392.141 550.5 387.688 528.719 379.828 507.516 371.359 485.766 361.906 468.297 353.703 449.453 344.234 431.141 334.344 426.641 331.734 429.5 329.781 442.797 318.875 449.969 311.828 456.672 304.344 467.016 290.438 475.781 275.297 482.813 259.109 487.906 242.125 489.953 231.922 491.063 224.016 492.016 207 491.078 190.578 488.234 173.594 485.469 162.719 482.594 153.547 475.078 134.656 466.781 118.234 455.344 99.672 450.078 92.281 444.016 84.969 437.297 80.75 429.656 78.953 421.813 79.672 414.719 82.875 410.563 86.469 400.797 98.063 390.844 108.906 375.016 124.688 355.531 142.047 339.578 154.734 320.703 168.078 303.516 178.703 285.266 188.406 274.016 193.578 270.953 194.828 266.344 187.828 259.734 176.625 254.703 167.188 245.469 148.219 239.688 138.484 235.359 132.328 228.594 124.156 223.578 119.031 215.797 112.406 207.391 106.734 198.469 102.125 189.094 98.641 179.297 96.297 169.172 95.125 158.984 95.141 149.297 96.484 140.094 99.047 134.031 101.516 125.828 105.938 118.219 111.438 111.328 117.906 103.734 127.578 99.063 135.859 95.484 144.734 93.891 151.328 88.75 154.438 80.297 161.031 72 169.516 65.813 177.766 59.281 189.516 54.328 202.906 52.578 210.063 51.297 218.094 50.969 224.406 52.156 230.656 54.328 235.359 58.594 240.641 64.25 244.563 69.438 246.406 74 247 100.734 247.141 106.984 247.813 110.656 248.766 113.781 250.125 116.969 252.172 120.391 255.172 123.156 258.234 127.094 263.469 132.031 271.406 136.766 280.313 141.797 290.906 153.438 318.875 168.797 359.922 176.594 376.078 183.906 387.922 192.031 398.688 200.984 408.422 210.703 417.156 223.75 426.594 237.828 434.531 252.703 441.016 262.156 444.297 271.859 447.109 288.438 450.75 309.156 453.578 327.078 454.766 354.063 455.375 365.031 456.266 375.547 457.703 385.25 459.672 396.953 463.078 404.719 466.125 411.906 469.734 420.203 475.156 427.359 481.453 431.922 486.75 437.109 494.969 440.625 503.094 443.25 513 444.344 521.406 444.469 528.375 443.953 536.172 445.063 542.313 447.234 547.156 451 552.063 455.938 555.813 460.734 557.953 465.797 558.938 470.047 558.984 Z M162.344 170.734 L161.406 170.391 160.469 169.813 159.734 169.156 158.531 167.359 158.25 166.609 158.047 165.141 158.125 164.063 158.703 162.266 159.188 161.484 159.984 160.609 160.984 159.859 161.766 159.484 163.656 159.078 164.734 159.094 165.875 159.375 167.719 160.375 168.391 161 169.141 162 169.625 163 169.766 163.516 169.766 166.5 169.625 167.016 169.219 167.859 167.844 169.531 167 170.156 166.406 170.438 163.75 170.906 Z"/>
  </defs>
  <use id="Path-6" stroke="#ffffff" stroke-opacity="1" stroke-linecap="round" fill="none" stroke-width="18" xlink:href="#stroke-path-2"/>
  <defs>
   <path id="stroke-path-3" d="M561.172 400.582 C560.561 400.405 499.198 382.394 429.182 343.544 422.739 339.969 416.084 336.133 409.288 332.044 453.211 307.611 483 260.718 483 206.99 483 146.258 441.299 95.517 439.523 93.388 433.497 86.157 422.075 86.117 416.117 93.835 415.436 94.719 354.541 172.583 267.507 205.943 257.657 191.775 248.902 176.727 241.655 160.783 225.008 124.16 197.43 103.99 164 103.99 132.639 103.99 106.557 127.026 101.781 157.063 61.597 178.389 60.052 220.707 60.005 222.615 59.794 231.053 66.582 237.99 75 237.99 L92 237.99 C122.109 237.99 134.572 237.99 173.874 348.035 199.917 420.957 262.868 445.99 340 445.99 385.55 445.99 417.998 456.762 436.442 478.008 457.252 501.981 453.205 532.488 453.174 532.709 451.777 541.787 458.807 549.99 467.999 549.99 507.302 549.99 537.865 526.016 556.386 480.661 569.381 448.837 571.859 417.433 571.957 416.112 572.488 409.038 567.985 402.558 561.172 400.582 Z M164 180 C155.716 180 149 173.284 149 165 149 156.716 155.716 150 164 150 172.284 150 179 156.716 179 165 179 173.284 172.284 180 164 180 Z" stroke-linejoin="round"/>
  </defs>
  <use id="Path-7" stroke="#000000" stroke-opacity="1" stroke-linecap="round" fill="none" stroke-width="6" xlink:href="#stroke-path-3"/>
 </g>
 <g id="solid-copy">
  <defs>
   <path id="Path-8" d="M145.464 116.048 C107.697 125.732 67.702 121.409 32.877 103.879 L69.268 85.479 145.6 116.013 Z"/>
  </defs>
  <use id="Path-9" xlink:href="#Path-8" fill="#ffffff" fill-opacity="1" stroke="none"/>
  <defs>
   <path id="stroke-path-4" d="M119.422 129.531 L134.516 127.609 147.828 124.766 154.406 122.563 154.781 110 68.828 75.625 23.766 98.422 24 109.734 41.047 117.5 51.891 121.5 66.453 125.609 77.75 127.859 92.766 129.656 107.922 130.094 Z"/>
  </defs>
  <use id="Path-10" stroke="#ffffff" stroke-opacity="1" stroke-linecap="round" fill="none" stroke-width="18" xlink:href="#stroke-path-4"/>
  <defs>
   <path id="stroke-path-5" d="M145.464 116.048 C107.697 125.732 67.702 121.409 32.877 103.879 L69.268 85.479 145.6 116.013 Z" stroke-linejoin="round"/>
  </defs>
  <use id="Path-11" stroke="#000000" stroke-opacity="1" stroke-linecap="round" fill="none" stroke-width="6" xlink:href="#stroke-path-5"/>
  <defs>
   <path id="Path-12" d="M93.813 33.619 C97.764 24.589 106.686 18.754 116.542 18.754 L137.731 18.754 C169.979 18.7 201.443 28.687 227.758 47.327 L239.493 55.608 C248.213 61.755 252.021 72.792 248.947 83.008 L239.045 116.016 85.351 52.96 Z M199.996 62.438 L208.267 63.19 C208.394 63.202 208.521 63.207 208.647 63.207 210.857 63.204 212.673 61.464 212.772 59.257 212.871 57.049 211.217 55.154 209.016 54.953 L200.745 54.201 C198.471 53.994 196.459 55.67 196.252 57.945 196.045 60.22 197.721 62.231 199.996 62.438 Z M138.805 37.24 L139.367 37.78 C151.425 49.404 166.596 57.28 183.041 60.455 184.495 60.743 185.991 60.232 186.964 59.114 187.937 57.997 188.237 56.444 187.752 55.044 187.267 53.644 186.069 52.611 184.614 52.335 169.736 49.463 156.011 42.337 145.102 31.821 L144.538 31.278 C142.892 29.695 140.274 29.746 138.691 31.392 137.107 33.038 137.158 35.656 138.805 37.24 Z"/>
  </defs>
  <use id="Path-13" xlink:href="#Path-12" fill="#ffffff" fill-opacity="1" stroke="none"/>
  <defs>
   <path id="stroke-path-6" d="M258.438 82.203 L259 73.828 257.641 66.219 255.688 61.234 252.969 56.516 247.469 50.391 228.969 37.25 218.172 30.656 209.703 26.25 201.063 22.344 192.188 18.953 183.141 16.078 173.953 13.75 164.641 11.922 155.203 10.656 145.625 9.938 114.969 9.766 107.938 10.797 101.125 13.406 95.078 17.375 89.891 22.641 85.797 29.5 73.406 57.797 244.828 128.141 Z"/>
  </defs>
  <use id="Path-14" stroke="#ffffff" stroke-opacity="1" stroke-linecap="round" fill="none" stroke-width="18" xlink:href="#stroke-path-6"/>
  <defs>
   <path id="stroke-path-7" d="M93.813 33.619 C97.764 24.589 106.686 18.754 116.542 18.754 L137.731 18.754 C169.979 18.7 201.443 28.687 227.758 47.327 L239.493 55.608 C248.213 61.755 252.021 72.792 248.947 83.008 L239.045 116.016 85.351 52.96 Z M199.996 62.438 L208.267 63.19 C208.394 63.202 208.521 63.207 208.647 63.207 210.857 63.204 212.673 61.464 212.772 59.257 212.871 57.049 211.217 55.154 209.016 54.953 L200.745 54.201 C198.471 53.994 196.459 55.67 196.252 57.945 196.045 60.22 197.721 62.231 199.996 62.438 Z M138.805 37.24 L139.367 37.78 C151.425 49.404 166.596 57.28 183.041 60.455 184.495 60.743 185.991 60.232 186.964 59.114 187.937 57.997 188.237 56.444 187.752 55.044 187.267 53.644 186.069 52.611 184.614 52.335 169.736 49.463 156.011 42.337 145.102 31.821 L144.538 31.278 C142.892 29.695 140.274 29.746 138.691 31.392 137.107 33.038 137.158 35.656 138.805 37.24 Z" stroke-linejoin="round"/>
  </defs>
  <use id="Path-15" stroke="#000000" stroke-opacity="1" stroke-linecap="round" fill="none" stroke-width="6" xlink:href="#stroke-path-7"/>
  <defs>
   <path id="Path-16" d="M17.995 113.213 C18.017 112.075 18.673 111.045 19.695 110.544 L23.83 108.452 C42.192 118.554 62.275 125.147 83.051 127.895 90.487 128.886 97.98 129.384 105.482 129.386 119.661 129.383 133.784 127.594 147.516 124.061 L158.605 121.218 170.182 125.845 141.404 133.225 C100.114 143.812 56.311 137.624 19.57 116.011 L19.523 115.984 C18.535 115.419 17.945 114.35 17.995 113.213 Z"/>
  </defs>
  <use id="Path-17" xlink:href="#Path-16" fill="#ffffff" fill-opacity="1" stroke="none"/>
  <defs>
   <path id="stroke-path-8" d="M116.813 146.594 L129.266 144.984 143.438 142 178.734 132.953 179.578 119.938 159.234 111.781 139.188 116.781 124.375 119.25 109.141 120.328 96.156 120.109 78.672 118.141 71.359 116.75 60.594 114.016 50.25 110.625 43.172 107.828 23.672 98.375 13.438 103.719 10.188 107.531 8.75 112.906 9.891 118.719 13.563 122.969 24.234 128.844 35.609 134.109 47.25 138.469 55.281 140.953 67.313 143.875 79.563 145.906 91.922 147.047 104.359 147.266 Z"/>
  </defs>
  <use id="Path-18" stroke="#ffffff" stroke-opacity="1" stroke-linecap="round" fill="none" stroke-width="18" xlink:href="#stroke-path-8"/>
  <defs>
   <path id="stroke-path-9" d="M17.995 113.213 C18.017 112.075 18.673 111.045 19.695 110.544 L23.83 108.452 C42.192 118.554 62.275 125.147 83.051 127.895 90.487 128.886 97.98 129.384 105.482 129.386 119.661 129.383 133.784 127.594 147.516 124.061 L158.605 121.218 170.182 125.845 141.404 133.225 C100.114 143.812 56.311 137.624 19.57 116.011 L19.523 115.984 C18.535 115.419 17.945 114.35 17.995 113.213 Z" stroke-linejoin="round"/>
  </defs>
  <use id="Path-19" stroke="#000000" stroke-opacity="1" stroke-linecap="round" fill="none" stroke-width="6" xlink:href="#stroke-path-9"/>
  <defs>
   <path id="Path-20" d="M82.035 60.54 L236.656 123.977 231.419 141.433 74.272 78.286 Z"/>
  </defs>
  <use id="Path-21" xlink:href="#Path-20" fill="#ffffff" fill-opacity="1" stroke="none"/>
  <defs>
   <path id="stroke-path-10" d="M247.625 118.75 L77.313 48.875 62.297 83.188 237.188 153.453 Z"/>
  </defs>
  <use id="Path-22" stroke="#ffffff" stroke-opacity="1" stroke-linecap="round" fill="none" stroke-width="18" xlink:href="#stroke-path-10"/>
  <defs>
   <path id="stroke-path-11" d="M82.035 60.54 L236.656 123.977 231.419 141.433 74.272 78.286 Z" stroke-linejoin="round"/>
  </defs>
  <use id="Path-23" stroke="#000000" stroke-opacity="1" stroke-linecap="round" fill="none" stroke-width="6" xlink:href="#stroke-path-11"/>
 </g>
</svg>
